<?xml version="1.0" encoding="utf-8"?>
<svg version="1.1" id="Layer_1" xmlns="http://www.w3.org/2000/svg" xmlns:xlink="http://www.w3.org/1999/xlink" x="0px" y="0px"
     viewBox="0 0 192 32" style="enable-background:new 0 0 192 32;" xml:space="preserve">
<style type="text/css">
	.st0{fill:#39424E;}
	.st1{fill:url(#SVGID_1_);}
	.st2{fill:#FFFFFF;}
	.st3{fill:#47408F;}
	.st4{fill:none;}
	.st5{fill:#434645;}
	.st6{fill:#FF9900;}
	.st7{fill:#181D21;}
	.st8{fill:#0069FF;}
	.st9{fill:#202951;}
</style>
    <rect class="st0" width="32" height="32"/>
    <linearGradient id="SVGID_1_" gradientUnits="userSpaceOnUse" x1="96" y1="774" x2="128" y2="774" gradientTransform="matrix(1 0 0 1 0 -758)">
	<stop  offset="0" style="stop-color:#43A047"/>
        <stop  offset="1" style="stop-color:#43A047"/>
</linearGradient>
    <path class="st1" d="M99.7,0h24.6c2,0,3.7,1.7,3.7,3.7v24.6c0,2-1.7,3.7-3.7,3.7H99.7c-2,0-3.7-1.7-3.7-3.7V3.7
	C96,1.7,97.7,0,99.7,0z"/>
    <path class="st2" d="M109.9,9.6h2.8l-4.4,12.9h-3l-4.3-12.9h2.8l2.4,7.6c0.1,0.5,0.3,1,0.4,1.6c0.1,0.4,0.2,0.8,0.3,1.2
	c0.2-1,0.4-1.9,0.7-2.8L109.9,9.6z"/>
    <path class="st2" d="M122.6,22.4h-9.6v-1.8l6.2-8.8h-6V9.6h9.2v1.8l-6.1,8.8h6.3V22.4z"/>
    <rect x="32" class="st3" width="32" height="32"/>
    <g>
	<rect x="38" y="9.5" class="st4" width="60" height="27.5"/>
        <path class="st2" d="M47.2,19.6c0,1.2-0.4,2.1-1.3,2.7c-0.8,0.7-2,1-3.5,1c-1.4,0-2.6-0.3-3.6-0.8v-2.5c0.9,0.4,1.6,0.7,2.2,0.8
		s1.2,0.2,1.6,0.2c0.6,0,1.1-0.1,1.4-0.3s0.5-0.6,0.5-1c0-0.3-0.1-0.5-0.2-0.7c-0.1-0.2-0.3-0.4-0.6-0.6c-0.3-0.2-0.8-0.5-1.7-0.9
		c-0.8-0.4-1.4-0.7-1.8-1.1s-0.7-0.7-0.9-1.2s-0.4-1-0.4-1.6c0-1.1,0.4-2,1.2-2.7s1.8-1,3.2-1c0.7,0,1.3,0.1,1.9,0.2
		c0.6,0.2,1.2,0.4,1.9,0.7l-0.9,2.1c-0.7-0.3-1.3-0.5-1.7-0.6c-0.4-0.1-0.9-0.2-1.3-0.2c-0.5,0-0.9,0.1-1.2,0.4s-0.4,0.6-0.4,0.9
		c0,0.2,0.1,0.4,0.2,0.6s0.3,0.4,0.5,0.5c0.2,0.2,0.8,0.5,1.7,0.9c1.2,0.6,2,1.2,2.5,1.7C47,18.1,47.2,18.8,47.2,19.6z"/>
        <path class="st2" d="M54.5,23.2h-2.7V12.6h-3.5v-2.3H58v2.3h-3.5V23.2z"/>
</g>
    <rect x="64" class="st5" width="32" height="32"/>
    <g>
	<path class="st6" d="M73.8,8.7c1.3-0.2,2.8-0.3,4.4-0.3c3,0,5.1,0.7,6.6,2c1.4,1.3,2.3,3.2,2.3,5.8c0,2.6-0.8,4.8-2.3,6.3
		c-1.5,1.5-4,2.3-7.2,2.3c-1.5,0-2.7-0.1-3.8-0.2V8.7z"/>
</g>
    <path class="st7" d="M21.8,25.2c2.7-1.9,4.4-5.1,4.4-8.6C26.2,10.7,21.4,6,15.6,6S5,10.7,5,16.6c0,5.7,4.5,10.3,10.1,10.6l13,0v-2
	H21.8z M12.4,18.3c-0.9,0.9-2.4,0.9-3.4,0c-0.9-0.9-0.9-2.4,0-3.4c0.9-0.9,2.4-0.9,3.4,0C13.3,15.8,13.3,17.3,12.4,18.3z M17.3,23.2
	c-0.9,0.9-2.4,0.9-3.4,0c-0.9-0.9-0.9-2.4,0-3.4c0.9-0.9,2.4-0.9,3.4,0C18.2,20.8,18.2,22.3,17.3,23.2z M17.3,13.4
	c-0.9,0.9-2.4,0.9-3.4,0c-0.9-0.9-0.9-2.4,0-3.4c0.9-0.9,2.4-0.9,3.4,0C18.2,10.9,18.2,12.4,17.3,13.4z M18.8,18.3
	c-0.9-0.9-0.9-2.4,0-3.4c0.9-0.9,2.4-0.9,3.4,0c0.9,0.9,0.9,2.4,0,3.4C21.3,19.2,19.8,19.2,18.8,18.3z"/>
    <path class="st8" d="M131.7,0h24.6c2,0,3.7,1.7,3.7,3.7v24.6c0,2-1.7,3.7-3.7,3.7h-24.6c-2,0-3.7-1.7-3.7-3.7V3.7
	C128,1.7,129.7,0,131.7,0z"/>
    <path class="st2" d="M152.7,11.8L141,5c-2.2-1.3-5-0.6-6.3,1.6C134.2,7.3,134,8.2,134,9v13.6c0,2.6,2.1,4.6,4.6,4.6c0,0,0,0,0,0
	c0.8,0,1.6-0.2,2.4-0.6l11.7-6.8c2.2-1.3,3-4.1,1.7-6.3C154,12.8,153.4,12.2,152.7,11.8L152.7,11.8z"/>
    <circle class="st8" cx="142.8" cy="16" r="5.9"/>
    <circle class="st2" cx="142.9" cy="16" r="2.5"/>
    <path class="st2" d="M150.5,0.5"/>
    <path class="st2" d="M135,50.4"/>
    <rect x="160" class="st9" width="32" height="32"/>
    <g>
</g>
    <g>
</g>
    <g>
</g>
    <g>
</g>
    <g>
</g>
    <g>
</g>
    <g>
</g>
    <g>
</g>
    <g>
</g>
    <g>
</g>
    <g>
</g>
    <g>
</g>
    <g>
</g>
    <g>
</g>
    <g>
</g>
</svg>